<?xml version="1.0" encoding="utf-8"?>
<!-- Generator: Adobe Illustrator 27.5.0, SVG Export Plug-In . SVG Version: 6.00 Build 0)  -->
<svg version="1.1" id="Ñëîé_1" xmlns="http://www.w3.org/2000/svg" xmlns:xlink="http://www.w3.org/1999/xlink" x="0px" y="0px"
	 viewBox="0 0 2600 2000" style="enable-background:new 0 0 2600 2000;" xml:space="preserve">
<rect id="_x39_" style="fill:#FFFFFF;" width="2600" height="2000"/>
<g>
	<g id="_x38_">
		<path style="fill:#D4E8FF;" d="M378.304,1548.628c0,0-118.475-566.399,81.098-692.522
			c133.396-84.301,274.789,101.536,443.551,3.224c150.246-87.525,5.887-314.87,191.466-365.692
			c260.78-71.416,483.862,443.554,700.464,362.467c343.999-128.779,607.656,84.847,377.03,693.603L378.304,1548.628z"/>
		<path style="fill:#DCE6FF;" d="M1200.586,273.596l-1.997,9.097c13.986,2.023,27.804,5.993,41.062,11.797l5.409-8.136
			C1230.725,280.086,1215.767,275.791,1200.586,273.596z M1153.281,273.167c-15.814,1.98-30.677,6.533-44.168,13.546l6.138,7.776
			c12.148-6.302,25.522-10.408,39.762-12.192L1153.281,273.167z M1312.025,333.32c-0.792-0.797-1.606-1.578-2.408-2.358
			c-5.715-5.521-11.515-10.674-17.367-15.416c-3-2.443-6.011-4.767-9.032-6.988l-7.638,6.859c2.746,2.015,5.493,4.133,8.229,6.353
			c5.557,4.475,11.082,9.354,16.522,14.584c1.014,0.969,2.018,1.955,3.021,2.958c0.919,0.909,1.838,1.826,2.747,2.752l8.905-5.761
			C1314.011,335.301,1313.028,334.306,1312.025,333.32z M1074.538,312.726c-8.874,9.148-17.166,20.02-24.646,32.314l10.215,4.09
			c7.12-11.72,14.99-22.043,23.378-30.685L1074.538,312.726z M1358.738,390.301c-5.599-8.188-11.272-15.956-16.913-23.2
			l-3.877,1.989l-5.747,2.949c1.817,2.332,3.645,4.724,5.462,7.168c3.771,5.059,7.543,10.348,11.293,15.827
			c1.997,2.932,3.993,5.916,5.979,8.951l10.057-4.338C1362.922,396.482,1360.84,393.362,1358.738,390.301z M1032.23,379.995
			c-4.659,11.069-9.043,23.226-13.015,36.129l11.05,2.246c3.888-12.655,8.176-24.564,12.74-35.384L1032.23,379.995z
			 M1385.496,433.263l-10.331,3.884c6.042,10.597,12.212,22.026,18.328,33.969l10.511-3.549
			C1397.835,455.512,1391.602,443.963,1385.496,433.263z M1009.401,452.82c-2.683,11.6-5.219,24.049-7.521,36.987l11.272,1.32
			c2.282-12.809,4.785-25.121,7.448-36.601L1009.401,452.82z M1436.89,537.116c-3.676-8.325-7.215-16.179-10.701-23.749
			c-1.722-3.738-3.433-7.416-5.144-11.043l-6.169,1.912l-4.468,1.38c4.342,9.234,8.705,18.759,13.258,28.97
			c0.856,1.929,1.722,3.884,2.599,5.864l10.722-3.121C1436.953,537.262,1436.921,537.185,1436.89,537.116z M996.038,526.948
			c-1.627,11.729-3.169,24.246-4.595,37.218l11.346,0.815c1.416-12.895,2.947-25.344,4.564-37.004L996.038,526.948z
			 M1981.489,562.486l-1.057,9.208c14.05,1.063,28.333,4.047,42.435,8.874l4.426-8.514
			C2012.114,566.858,1996.701,563.643,1981.489,562.486z M1934.131,566.815c-13.891,3.661-28.037,9.551-42.034,17.507l6.528,7.571
			c13.078-7.425,26.209-12.903,39.023-16.29L1934.131,566.815z M1462.349,596.943c-3.718-8.985-7.025-16.89-10.162-24.341
			l-10.775,3.001c4.035,9.551,8.335,19.865,13.437,32.254c0.422,0.995,0.834,2.006,1.257,3.026l10.796-2.932
			C1465.307,604.094,1463.796,600.442,1462.349,596.943z M2068.05,591.01l-6.698,7.468c11.42,6.756,22.776,14.798,33.73,23.912
			l8.156-6.447C2091.829,606.452,2079.987,598.067,2068.05,591.01z M500.117,617.289l-1.542,9.157
			c13.353,1.483,27.329,5.144,41.537,10.889l5.071-8.274C529.865,622.87,514.705,618.909,500.117,617.289z M987.788,601.427
			c-1.025,11.66-2.007,23.861-2.99,37.287l11.367,0.549c0.982-13.392,1.954-25.558,2.979-37.175L987.788,601.427z M1856.487,608.955
			c-10.141,8.231-20.251,17.43-30.931,28.13l8.842,5.813c10.426-10.443,20.293-19.411,30.149-27.419L1856.487,608.955z
			 M452.442,620.332c-14.303,3.558-28.459,9.628-42.055,18.048l6.898,7.348c12.529-7.751,25.48-13.323,38.495-16.556
			L452.442,620.332z M2133.461,644.613l-9.085,5.581c8.715,9.345,17.272,19.565,25.427,30.377l9.708-4.836
			C2151.166,664.675,2142.398,654.207,2133.461,644.613z M584.702,649.491l-6.94,7.322c10.934,6.833,22.374,14.953,34.005,24.152
			l7.944-6.627C607.763,664.898,595.984,656.539,584.702,649.491z M1481.427,643.318l-10.543,2.855l-0.253,0.068
			c0.011,0.017,0.021,0.043,0.021,0.06c2.398,5.83,5.039,12.252,7.807,18.931c2.219,5.35,4.521,10.863,6.835,16.376l7.986-2.212
			l2.789-0.771C1490.86,666.227,1485.748,653.821,1481.427,643.318z M376.657,664.907c-9.254,8.882-18.476,19.154-27.424,30.531
			l9.592,4.973c8.684-11.026,17.6-20.971,26.526-29.545L376.657,664.907z M1797.657,667.024c-7.986,9.105-16.501,19.214-26.008,30.9
			l9.497,5.093c9.444-11.592,17.874-21.614,25.786-30.625L1797.657,667.024z M982.242,676.001
			c-0.813,12.569-1.574,24.915-2.345,37.27l11.377,0.463c0.761-12.346,1.521-24.692,2.335-37.253L982.242,676.001z M651.603,701.594
			l-8.525,6.13c9.455,8.651,19.068,17.91,29.399,28.319l8.874-5.796C670.903,719.727,661.174,710.347,651.603,701.594z
			 M2182.066,708.521l-10.152,4.192c6.645,10.606,13.121,21.846,19.248,33.42l10.458-3.652
			C2195.408,730.727,2188.827,719.298,2182.066,708.521z M1511.207,713.742l-10.712,3.13c5.81,13.066,11.134,24.521,16.3,35.023
			l10.574-3.421C1522.256,738.066,1516.974,726.706,1511.207,713.742z M1746.601,729.235c-8.462,10.683-16.818,21.263-24.91,31.251
			l9.518,5.076c8.124-10.031,16.49-20.62,24.973-31.328L1746.601,729.235z M326.151,728.026
			c-7.078,11.034-13.744,22.317-19.987,33.806l10.416,3.729c6.148-11.3,12.698-22.403,19.67-33.266L326.151,728.026z
			 M977.53,750.515c-0.94,14.206-1.817,26.372-2.683,37.201l9.138,0.48l2.229,0.12c0.063-0.789,0.127-1.578,0.18-2.375
			c0.813-10.263,1.627-21.717,2.504-34.929L977.53,750.515z M709.672,759.749l-9.074,5.582c8.219,8.814,16.902,18.296,27.318,29.853
			l9.191-5.461C726.648,778.131,717.933,768.605,709.672,759.749z M2218.606,777.308l-10.691,3.164
			c5.06,11.274,9.951,23.063,14.547,35.032l10.87-2.743C2228.694,800.645,2223.74,788.719,2218.606,777.308z M1545.412,782.426
			l-10.289,3.953c7.648,13.126,14.958,23.998,22.321,33.223l9.56-5.033C1559.906,805.695,1552.849,795.175,1545.412,782.426z
			 M1695.895,791.068c-9.433,10.571-17.916,19.248-25.85,26.432c-0.813,0.746-1.627,1.475-2.44,2.186l8.367,6.267
			c1.394-1.226,2.81-2.503,4.236-3.824c7.711-7.116,15.909-15.553,24.909-25.644L1695.895,791.068z M288.829,796.564
			c-5.261,11.549-10.226,23.492-14.747,35.495l10.881,2.701c4.469-11.832,9.36-23.603,14.547-34.989L288.829,796.564z
			 M1633.832,841.773c-13.226,5.084-25.48,5.076-37.935-1.303l-6.074,7.811c8.293,4.244,16.997,6.396,25.86,6.396
			c7.469,0,15.223-1.535,23.05-4.561L1633.832,841.773z M764.119,819.885l-9.212,5.427c8.272,9.251,17.874,19.977,27.128,30.119
			l9.148-5.496C781.961,839.827,772.38,829.118,764.119,819.885z M971.435,824.84c-1.469,13.821-3.042,25.893-4.785,36.927
			l1.88,0.197l9.412,0.986c0.528-3.335,1.035-6.756,1.532-10.297c1.173-8.308,2.261-17.233,3.307-27.016L971.435,824.84z
			 M2246.051,848.701l-11.007,2.367c3.792,11.66,7.437,23.758,10.807,35.966l11.113-2.023
			C2253.562,872.69,2249.885,860.472,2246.051,848.701z M261.796,868.154c-3.634,11.926-6.962,24.229-9.919,36.558l11.177,1.766
			c2.916-12.183,6.212-24.332,9.803-36.104L261.796,868.154z M835.763,896.404c-1.31-1.269-2.651-2.572-4.004-3.901
			c-4.109-4.047-8.398-8.368-12.888-13.006l-8.948,5.71c3.148,3.249,6.201,6.345,9.169,9.311c0,0.008,0.01,0.017,0.01,0.026
			c1.447,1.44,2.863,2.846,4.268,4.218c5.662,5.564,11.018,10.631,16.184,15.295l8.472-6.182
			C844.087,904.309,840.009,900.503,835.763,896.404z M965.033,899.208l-5.874-1.046c-0.032,0.137-0.074,0.274-0.116,0.403
			c-1.014,3.764-2.081,7.313-3.201,10.666c-0.835,2.521-1.701,4.921-2.599,7.211c-2.408,6.173-5.007,11.489-7.786,15.896
			l10.141,4.201c1.511-2.401,2.958-4.998,4.342-7.802c2.926-5.89,5.578-12.706,8.018-20.542c0.792-2.572,1.574-5.256,2.324-8.051
			L965.033,899.208z M906.9,947.015c-8.673-2.709-16.691-7.236-26.727-13.615l-7.194,7.159
			c11.346,7.228,20.441,12.278,30.508,15.304c3.983,1.2,8.124,2.083,12.603,2.658l1.215-9.182
			C913.64,948.833,910.228,948.052,906.9,947.015z M2266.239,921.602l-11.187,1.706c2.757,11.9,5.367,24.186,7.733,36.524
			l11.251-1.432C2271.647,945.977,2269.028,933.597,2266.239,921.602z M244.186,941.605c-2.176,12.14-4.057,24.632-5.61,37.133
			l11.335,0.917c1.532-12.363,3.391-24.718,5.546-36.721L244.186,941.605z M2280.458,995.37l-11.303,1.157
			c1.881,12.037,3.603,24.435,5.124,36.85l11.335-0.917C2284.081,1019.968,2282.338,1007.494,2280.458,995.37z M234.932,1016.007
			c-0.887,12.235-1.5,24.795-1.817,37.347l11.388,0.189c0.306-12.432,0.919-24.872,1.796-36.995L234.932,1016.007z
			 M2289.585,1069.635l-11.356,0.686c1.109,12.149,2.071,24.606,2.852,37.021l11.377-0.472
			C2291.666,1094.388,2290.705,1081.861,2289.585,1069.635z M244.386,1090.581l-11.377,0.137
			c0.232,12.269,0.729,24.829,1.479,37.338l11.377-0.454C245.115,1115.196,244.619,1102.738,244.386,1090.581z M2294.296,1144.141
			l-11.377,0.274c0.433,12.183,0.729,24.667,0.856,37.098l11.388-0.077C2295.036,1168.936,2294.74,1156.392,2294.296,1144.141z
			 M248.823,1164.589l-11.346,0.746c1.215,12.235,2.694,24.744,4.395,37.184l11.314-1.02
			C251.506,1189.152,250.038,1176.738,248.823,1164.589z M2283.732,1218.629c-0.158,12.209-0.465,24.692-0.908,37.115l11.377,0.266
			c0.454-12.475,0.76-25.018,0.919-37.287L2283.732,1218.629z M258.859,1238.297l-11.272,1.277
			c2.092,12.175,4.437,24.589,6.962,36.91l11.229-1.526C263.264,1262.723,260.94,1250.394,258.859,1238.297z M2281.091,1292.842
			c-0.697,12.235-1.553,24.701-2.514,37.073l11.367,0.583c0.972-12.415,1.817-24.941,2.525-37.227L2281.091,1292.842z
			 M273.891,1311.464l-11.177,1.758c2.884,12.097,6.011,24.392,9.296,36.558l11.124-1.981
			C279.87,1335.711,276.754,1323.485,273.891,1311.464z M2283.278,1367.468l-7.955-0.514c-0.243,2.426-0.486,4.87-0.729,7.313
			c-1.004,9.826-2.081,19.78-3.233,29.682l11.335,0.866c1.447-12.415,2.789-24.915,3.982-37.133L2283.278,1367.468z
			 M293.477,1383.946l-11.06,2.203c3.645,12.046,7.5,24.203,11.493,36.147l10.987-2.418
			C300.935,1408.012,297.09,1395.924,293.477,1383.946z M2266.714,1440.892c-1.056,7.828-2.176,15.767-3.338,23.715
			c-0.634,4.399-1.289,8.788-1.954,13.178l11.293,1.132c0.665-4.373,1.321-8.762,1.965-13.143c1.173-7.999,2.292-15.99,3.359-23.878
			L2266.714,1440.892z M321.313,1466.133c-1.32-3.506-2.63-7.03-3.919-10.554l-10.913,2.632c1.225,3.361,2.472,6.713,3.729,10.048
			c3.264,8.668,6.602,17.25,9.962,25.609l10.817-2.872C327.725,1482.878,324.482,1474.553,321.313,1466.133z"/>
		<path style="fill:#EEF7FF;" d="M2344.881,1293.592c-94.492-15.193-79.072,122.073-213.763,122.073
			c-123.148,0-162.545-522.738-252.146-373.31c-459.345,766.059-192.612-325.781-557.921-339.655
			c-165.182-6.274-275.252,184.794-315.842,523.088c-58.837,305.83-195.288-233.261-335.712-183.138
			c-89.246,31.856-79.025,373.015-202.173,373.015c-134.691,0-119.272-137.267-213.763-122.073
			c-101.736,16.359-132.123,259.318-132.123,259.318h2355.565C2477.004,1552.91,2446.617,1309.95,2344.881,1293.592z"/>
		<path style="fill:#DCE6FF;" d="M2261.203,1442.178c-86.93-6.488-72.744,52.127-196.657,52.127
			c-113.293,0-110.18-131.363-185.994-159.282c-139.616-51.414-254.718,208.795-308.847,78.202
			c-102.805-346.521-402.643-520.298-540.968,0c-54.129,130.593-180.708-102.431-308.846-78.202
			c-78.874,14.914-72.701,159.282-185.994,159.282c-123.912,0-109.727-58.615-196.657-52.127
			c-93.594,6.985-121.55,110.732-121.55,110.732h2167.063C2382.753,1552.91,2354.797,1449.163,2261.203,1442.178z"/>
		<path style="fill:#C4D6F2;" d="M121.439,1552.91c0,0-14.175,53.277,53.691,67.927c176.467,38.093,444.167-11.834,258.461,112.921
			c-90.625,60.88,422.121,98.686,1013.229,92.932c667.266-6.495,1000.092-50.459,788.22-111.238
			c-211.872-60.779,294.547-36.116,241.965-162.541H121.439z"/>
	</g>
	<g id="_x37_">
		<path style="fill:#FCB4B4;" d="M1303.168,1620.486c0,0-279.202-326.967-765.609-294.658
			C537.559,1325.829,852.322,1624.807,1303.168,1620.486z"/>
		<path style="fill:#F49F9F;" d="M1297.657,1620.481c0,0-112.73-339.328-643.973-544.801
			C653.684,1075.68,821.097,1434.73,1297.657,1620.481z"/>
		<path style="fill:#FCB4B4;" d="M1297.657,1620.481c0,0-33.139-428.675-445.307-688.972
			C852.35,931.509,930.713,1358.502,1297.657,1620.481z"/>
		<path style="fill:#F49F9F;" d="M1297.657,1620.481c0,0,77.118-449.53-241.658-823.951
			C1055.999,796.53,974.455,1386.391,1297.657,1620.481z"/>
		<path style="fill:#FCB4B4;" d="M1297.657,1620.481c0,0,165.019-502.354-12.182-844.568
			C1285.476,775.913,1135.132,1246.323,1297.657,1620.481z"/>
		<path style="fill:#FCB4B4;" d="M1294.853,1621.069c0,0,534.863-27.974,775.078-329.316
			C2069.931,1291.753,1570.22,1320.101,1294.853,1621.069z"/>
		<path style="fill:#F49F9F;" d="M1294.853,1621.069c0,0,441.907-112.887,653.8-556.633
			C1948.653,1064.436,1376.807,1230.504,1294.853,1621.069z"/>
		<path style="fill:#FCB4B4;" d="M1294.853,1621.069c0,0,379.979-238.92,449.585-721.404
			C1744.438,899.664,1384.436,1179.191,1294.853,1621.069z"/>
		<path style="fill:#F49F9F;" d="M1294.853,1621.069c0,0,263.869-241.298,234.862-810.154
			C1529.714,810.915,1270.136,1110.186,1294.853,1621.069z"/>
	</g>
	<g id="_x36_">
		<path style="fill:#F99370;" d="M1167.373,1664.211c0,0-28.588,30.54-45.946,38.164c-23.276,10.223-79.522,27.179-91.029,30.706
			c-31.429,9.635-28.639,39.605,12.984,35.358c52.799-2.728,128.094-5.656,163.436-40.119
			C1254.288,1702.768,1211.713,1633.422,1167.373,1664.211z"/>
		<path style="fill:#F99370;" d="M1449.75,1664.211c0,0,28.588,30.54,45.946,38.164c23.276,10.223,79.522,27.179,91.029,30.706
			c31.429,9.635,28.639,39.605-12.983,35.358c-52.799-2.728-128.095-5.656-163.436-40.119
			C1362.834,1702.768,1405.409,1633.422,1449.75,1664.211z"/>
		<path style="fill:#23659B;" d="M1022.543,1440.815c0,0,228.213,64.195,588.894,0.802
			C1392.409,1596.324,1247.154,1644.899,1022.543,1440.815z"/>
		<path style="fill:#3A72AA;" d="M1428.728,1749.751c-800.746-142.205-542.588-542.307,40.319-94.762
			C1478.153,1713.847,1428.728,1749.751,1428.728,1749.751z"/>
		<path style="fill:#23659B;" d="M1428.728,1749.751c-0.89,0.027-9.796-1.542-24.649-4.589c0,0,53.747-36.131,47.119-102.525
			c11.439,7.79,17.849,12.352,17.849,12.352C1478.153,1713.847,1428.728,1749.751,1428.728,1749.751z"/>
		<path style="fill:#23659B;" d="M1461.575,1662.689l-19.737,36.212l-105.45,30.998c-8.425-2.04-17.259-4.235-26.419-6.584
			L1461.575,1662.689z"/>
		<path style="fill:#3A72AA;" d="M1213.106,1745.715c-13.219,2.685-21.099,4.063-21.934,4.036c0,0-49.425-35.904-40.319-94.762
			C1726.944,1211.228,1984.242,1602.566,1213.106,1745.715z"/>
		<path style="fill:#F99370;" d="M1417.748,1125.966c111.888,96.42,111.329,331.042,315.14,259.393c0,0,18.564,1.493,21.971,12.704
			c-3.173,47.506-98.496,55.944-138.035,57.43c-140.459,2.446-189.582-165.937-262-243.412
			C1298.287,1172.109,1362.433,1084.375,1417.748,1125.966z"/>
		<path style="fill:#F99370;" d="M1265.075,1212.082c-72.408,77.452-121.553,245.887-261.996,243.399
			c-36.946-0.626-147.019-12.17-136.111-61.737c5.19-8.681,15.752-11.671,24.721-8.16
			c185.529,62.451,197.432-117.513,279.984-227.856C1223.866,1068.402,1334.438,1142.481,1265.075,1212.082z"/>
		<path style="fill:#F99370;" d="M1730.671,1395.472c-1.589-21.645,27.134-38.598,46.811-37.164
			c7.003,0.51,8.661,7.173,1.619,10.249c-9.906,4.327-20.581,9.781-18.924,22.1
			C1763.618,1416.234,1728.738,1421.75,1730.671,1395.472z"/>
		<path style="fill:#F99370;" d="M1746.613,1385.016c34.958,17.709,39.245-27.875,46.136-18.161c1.283,1.808,1.7,4.106,1.297,6.286
			C1782.937,1433.199,1697.435,1391.835,1746.613,1385.016z"/>
		<path style="fill:#F99370;" d="M1751.535,1391.908c19.251,3.937,40.522-4.974,55.163-17.81c0.018-0.016,0.036-0.033,0.054-0.049
			c2.53-2.232,6.348,0.546,5.233,3.731c-7.477,21.356-41.111,33.895-63.735,33.321
			C1734.25,1410.177,1738.001,1388.121,1751.535,1391.908z"/>
		<path style="fill:#F99370;" d="M1747.079,1397.826c21.249,9.481,47.765,3.157,65.841-11.094c0.019-0.015,0.038-0.031,0.057-0.046
			c2.655-2.076,6.274,1.02,4.838,4.069c-11.299,23.991-52.743,32.556-78.155,25.075
			C1726.332,1411.808,1734.748,1391.302,1747.079,1397.826z"/>
		<path style="fill:#F99370;" d="M1734.643,1406.354c23.726,9.249,52.16,10.016,75.99,0.069c0.022-0.008,0.044-0.016,0.066-0.025
			c3.125-1.127,5.811,2.753,3.745,5.354c-14.355,18.068-91.021,27.898-93.299,1.036
			C1722.611,1406.967,1729.206,1403.856,1734.643,1406.354z"/>
		<path style="fill:#F99370;" d="M862.796,1396.57c8.471-29.908-34.42-27.116-24.431-36.148c1.626-1.47,3.779-2.224,5.97-2.29
			c24.403-0.741,50.688,28.312,49.091,42.527C891.222,1420.278,850.853,1412.222,862.796,1396.57z"/>
		<path style="fill:#F99370;" d="M883.98,1403.374c-41.037,15.895-65.681-40.016-49.755-36.557c2.099,0.456,3.682,2.134,4.315,4.187
			c5.134,16.652,26.78,19.654,38.951,14.011C890.264,1379.093,897.701,1400.133,883.98,1403.374z"/>
		<path style="fill:#F99370;" d="M875.856,1411.099c-13.17,7.397-75.703-26.779-63.07-35.582c2.05-1.429,4.837-1.171,6.776,0.406
			c14.569,11.857,34.775,19.782,53.124,15.954C886.15,1388.253,889.803,1410.205,875.856,1411.099z"/>
		<path style="fill:#F99370;" d="M884.444,1415.828c-14.592,14.264-91.071-16.765-78.245-27.213c2.124-1.73,5.199-1.637,7.425-0.039
			c18.071,12.98,43.353,18.392,63.705,9.102C889.612,1391.631,897.599,1411.923,884.444,1415.828z"/>
		<path style="fill:#F99370;" d="M895.975,1424.702c-10.969,9.012-94.211-0.817-86.181-14.893c1.299-2.278,4.179-3.139,6.635-2.218
			c23.298,8.735,50.521,7.631,73.332-1.361C902.229,1400.972,909.131,1421.356,895.975,1424.702z"/>
		<path style="fill:#23659B;" d="M1213.106,1745.715c-13.219,2.685-21.099,4.063-21.934,4.036c0,0-49.425-35.904-40.319-94.762
			c0,0,6.365-5.497,18.23-12.615C1169.083,1642.374,1165.388,1704.17,1213.106,1745.715z"/>
		<path style="fill:#9358E0;" d="M1239.11,1106.052c0,0-11.479,135.919-52.754,208.959c-2.986,5.291-6.199,10.981-9.618,16.932
			c-12.291,21.389-27.383,46.24-45.418,68.744c-27.415,34.199-61.636,62.977-103.224,66.028
			c-51.347,3.776-94.266-12.215-116.975-23.163c-11.165-5.377-17.44-9.542-17.44-9.542c-1.439-28.021,14.606-43.352,14.606-43.352
			c5.226,0.801,10.289,1.439,15.19,1.904c84.194,8.039,120.373-33.518,165.369-132.198
			C1151.271,1123.47,1239.11,1106.052,1239.11,1106.052z"/>
		<path style="fill:#9358E0;" d="M1726.335,1434.009c0,0-5.994,3.971-16.683,9.174c-22.504,10.949-65.812,27.35-117.733,23.531
			c-46.814-3.43-84.291-39.468-113.232-79.13c-18.392-25.208-33.344-51.888-45.029-72.574c-5.55-9.824-10.44-20.718-14.736-32.219
			c-27.653-74.024-30.996-173.191-30.996-173.191s77.14,18.133,144.012,150.763c48.383,95.976,79.498,137.315,162.231,132.003
			c5.604-0.346,11.457-0.931,17.559-1.709C1711.729,1390.657,1727.774,1405.988,1726.335,1434.009z"/>
		<path style="fill:#7640CC;" d="M1194.774,1190.267l-18.035,141.675c-12.291,21.389-27.383,46.24-45.418,68.744
			c3.949-15.515,9.964-40.139,18.414-77.107C1167.013,1247.911,1194.774,1190.267,1194.774,1190.267z"/>
		<path style="fill:#7640CC;" d="M1478.687,1387.585c-18.392-25.208-33.344-51.888-45.029-72.574
			c-5.55-9.824-10.44-20.718-14.736-32.219l8.277-92.524c0,0,24.094,30.261,37.044,112.756
			C1470.649,1343.789,1475.463,1370.739,1478.687,1387.585z"/>
		<path style="fill:#9358E0;" d="M1483.636,1459.672c-108.875,48.763-237.776,49.462-346.82,0.971
			c-4.778-55.158,14.165-72.933,23.316-134.395c19.868-133.444,72.281-217.736,72.281-217.736
			c42.519-16.9,114.339-18.852,155.511,1.084c0,0,59.744,88.601,67.462,210.077
			C1459.161,1379.096,1483.636,1406.225,1483.636,1459.672z"/>
		<path style="fill:#7640CC;" d="M1268.563,1098.801c0,0,5.789,36.823,42.035,35.719c36.246-1.105,40.596-36.06,40.596-36.06
			S1314.446,1086.838,1268.563,1098.801z"/>
		<path style="fill:#F99370;" d="M1310.227,1120.56L1310.227,1120.56c-14.452,0-26.167-11.715-26.167-26.167v-35.633h52.334v35.633
			C1336.394,1108.844,1324.678,1120.56,1310.227,1120.56z"/>
		<path style="fill:#F99370;" d="M1397.773,988.991c-6.353,29.346-42.184,21.77-36.115-7.635
			C1368.01,952.012,1403.842,959.588,1397.773,988.991z"/>
		<path style="fill:#F99370;" d="M1222.68,988.991c6.353,29.346,42.184,21.77,36.115-7.635
			C1252.443,952.012,1216.612,959.588,1222.68,988.991z"/>
		<path style="fill:#F99370;" d="M1383.88,1020.694c-4.087,98.264-161.676,83.857-146.127-14.82
			c2.151-19.57,9.158-32.582,12.444-63.78c7.605-72.206,110.214-76.049,119.438-0.54
			C1373.259,971.341,1384.111,993.301,1383.88,1020.694z"/>
		<path style="fill:#C16256;" d="M1306.796,1007.189c-7.156-0.086-18.28-4.91-9.234-11.268c7.39-4.002,12.811-19.305,12.866-19.46
			c0.599-1.812,3.456-0.834,2.791,0.976c-0.235,0.673-5.863,16.543-14.247,21.084c-5.795,3.549,6.281,6.986,11.259,5.23
			c0.783-0.25,1.611,0.178,1.861,0.956C1312.515,1007.364,1308.647,1006.99,1306.796,1007.189z"/>
		<path style="fill:#E57D61;" d="M1261.963,937.514c35.451,16.464,76.121-37.144,97.833-12.564l2.658-15.016l-41.339-19.392
			l-65.972,22.966L1261.963,937.514z"/>
		<path style="fill:#8C4225;" d="M1373.974,964.302c0,0-12.362-23.706-14.177-39.352c-1.815-15.645-22.827-18.373-40.086-6.124
			c-17.259,12.248-38.797,17.816-61.433,9.465c-22.636-8.351-37.282-42.67-14.256-62.913c22.798-20.043,46.512-4.425,67.021,3.34
			C1337.51,878.74,1404.009,858.525,1373.974,964.302z"/>
		<path style="fill:#8C4225;" d="M1247.198,963.175c0,0,18.507-20.965,19.62-48.803L1247,906.578
			C1247,906.578,1238.925,933.661,1247.198,963.175z"/>
		<path style="fill:#C16256;" d="M1390.272,994.845c-0.951,0.011-1.676-0.957-1.381-1.867c5.058-14.417-0.19-21.787-11.577-17.422
			c-1.726,0.718-2.814-2.037-1.053-2.69c12.033-4.922,21.915,2.703,15.392,20.957
			C1391.463,994.444,1390.891,994.845,1390.272,994.845z"/>
		<path style="fill:#C16256;" d="M1378.447,991.342c-4.488-0.358,2.404-12.718,13.361-13.459c0.789-0.04,0.838,0.598,0.891,1.395
			c0.053,0.797,0.097,1.436-0.699,1.489C1380.791,981.925,1381.099,990.969,1378.447,991.342z"/>
		<path style="fill:#C16256;" d="M1231.091,994.845c-0.619,0-1.191-0.401-1.381-1.023c-6.531-18.26,3.384-25.877,15.395-20.955
			c1.746,0.662,0.685,3.393-1.054,2.689c-10.304-4.23-17.031,2.18-11.578,17.423
			C1232.767,993.885,1232.041,994.859,1231.091,994.845z"/>
		<path style="fill:#C16256;" d="M1244.578,992.825c-2.62-0.346-4.067-10.922-15.215-12.058c-0.796-0.053-0.614-0.693-0.562-1.489
			c0.053-0.796-0.026-1.442,0.753-1.395C1240.511,978.63,1249.059,992.451,1244.578,992.825z"/>
		<path style="fill:#8C4225;" d="M1383.886,1006.829c-4.838-29.74-9.596-42.11-16.287-60.667
			c2.535,21.541,28.121,97.909-17.357,73.693c-28.106-14.939-58.252-8.253-83.422,3.674c-11.85,4.438-24.033,3.624-22.479-14.06
			c1.187-13.51,2.5-34.494,7.463-58.395c-5.952,9.29-8.464,34.489-14.051,54.806c0,0,0-0.001,0-0.002
			C1221.073,1116.225,1396.171,1118.621,1383.886,1006.829z M1333.475,1065.276c-14.539,0.425-12.187-19.48-23.154-19.202
			c-8.819,0.224-7.413,30.061-34.97,18.368c-13.227-5.49-14.631-23.686-2.758-31.694c10.273-6.942,24.11-12.294,37.901-12.841
			c13.05-0.518,26.04,2.808,36.481,8.382C1367.406,1040.62,1352.125,1064.633,1333.475,1065.276z"/>
		<path style="fill:#C16256;" d="M1334.979,977.782c-5.271,0-8.896-1.753-9.14-1.875c-0.668-0.332-0.941-1.144-0.608-1.813
			c0.331-0.669,1.139-0.942,1.811-0.61c0.357,0.175,8.751,4.175,18.457-1.19c0.651-0.361,1.476-0.125,1.838,0.529
			c0.361,0.654,0.124,1.477-0.529,1.838C1342.489,977.047,1338.39,977.782,1334.979,977.782z"/>
		<path style="fill:#C16256;" d="M1285.634,977.782c-3.411,0-7.509-0.734-11.829-3.121c-0.653-0.361-0.891-1.184-0.529-1.838
			c0.361-0.653,1.184-0.891,1.838-0.529c9.762,5.393,18.368,1.233,18.454,1.191c0.668-0.333,1.48-0.061,1.813,0.609
			c0.333,0.668,0.06,1.48-0.609,1.813C1294.528,976.028,1290.903,977.782,1285.634,977.782z"/>
		<path style="fill:#C16256;" d="M1307.075,1033.822c-4.135,0-7.079-0.589-7.35-0.645c-0.731-0.151-1.201-0.866-1.049-1.598
			c0.151-0.73,0.869-1.204,1.597-1.051c0.141,0.028,14.219,2.818,24.094-4.329c0.604-0.435,1.45-0.302,1.889,0.303
			c0.438,0.605,0.302,1.45-0.303,1.889C1319.82,1032.83,1312.444,1033.822,1307.075,1033.822z"/>
		<path style="fill:#C16256;" d="M1349.744,960.465c-0.154,0-0.312-0.026-0.466-0.083c-12.024-4.408-25.008-3.656-25.14-3.649
			c-0.738,0.055-1.387-0.519-1.434-1.265s0.52-1.388,1.266-1.434c0.554-0.034,13.688-0.793,26.239,3.809
			c0.701,0.257,1.061,1.034,0.804,1.735C1350.813,960.126,1350.295,960.465,1349.744,960.465z"/>
		<path style="fill:#C16256;" d="M1271.471,960.465c-0.551,0.001-1.069-0.339-1.27-0.887c-0.257-0.701,0.103-1.478,0.804-1.735
			c12.552-4.603,25.685-3.844,26.239-3.809c0.745,0.046,1.312,0.688,1.265,1.434c-0.046,0.746-0.695,1.314-1.434,1.266
			c-0.132-0.008-13.137-0.752-25.14,3.649C1271.783,960.439,1271.625,960.465,1271.471,960.465z"/>
		<path style="fill:#7640CC;" d="M911.121,1443.552c-11.165-5.377-17.44-9.542-17.44-9.542
			c-1.439-28.021,14.606-43.352,14.606-43.352c5.226,0.801,10.289,1.439,15.19,1.904l0.617,0.476
			C924.093,1393.038,908.622,1421.654,911.121,1443.552z"/>
		<path style="fill:#7640CC;" d="M1726.335,1434.009c0,0-5.994,3.971-16.683,9.174c3.072-33.679-15.493-50.806-15.493-50.806
			l0.011-0.011c5.604-0.346,11.457-0.931,17.559-1.709C1711.729,1390.657,1727.774,1405.988,1726.335,1434.009z"/>
		<path style="fill:#23659B;" d="M1160.39,1655.617c-0.769,0-1.532-0.326-2.067-0.959c-0.964-1.141-0.821-2.848,0.32-3.812
			c0.882-0.746,89.059-75.028,160.654-114.479c1.308-0.72,2.953-0.246,3.675,1.063c0.721,1.309,0.244,2.954-1.063,3.675
			c-71.131,39.194-158.896,113.13-159.773,113.872C1161.627,1655.407,1161.007,1655.617,1160.39,1655.617z"/>
	</g>
	<g id="_x35_">
		<g>
			<path style="fill:#2FAC66;" d="M427.431,612.052l-13.561,9.014c0,0-3.355,33.118,16.105,74.814
				c4.801,10.286-0.962,16.824-7.692,6.776c-19.87-29.669-18.248-57.07-18.248-57.07l-11.96,2.829
				c-1.412,3.134,4.068,29.271,25.656,62.711c5.882,9.111,1.298,19.585-12.604,6.944c-13.019-11.838-36.118-39.061-49.256-58.422
				l-14.418,9.59c0,0,29.77,49.708,65.671,88.459c9.037,9.795,23.066,14.037,36.049,10.462
				c20.308-5.323,31.972-26.831,25.513-46.802C459.245,692.214,443.43,644.81,427.431,612.052z"/>
			<path style="fill:#269E57;" d="M436.158,631.269c12.486,29.504,24.953,66.512,32.529,90.087
				c6.354,19.732-4.854,40.901-24.785,46.606c-12.07,3.549-25.126,0.426-34.378-7.906c0,0,74.416,10.621,26.618-128.794
				L436.158,631.269z"/>
			<path style="fill:#2FAC66;" d="M516.794,565.734c9.548,19.777-9.166,43.414-30.419,39.111
				c31.165,24.911-7.761,70.231-37.05,43.635c-10.475,16.13-34.798,22.95-52.242,14.393c2.523,24.024-26.009,43.516-47.538,32.311
				c1.602,47.843-69.053,60.106-83.176,13.6c-37.901,17.151-59.642-42.002-19.673-53.512c-33.971-25.882-9.618-82.39,32.461-75.521
				c-23.337-45.013,40.481-85.332,71.214-45.875c11.43-26.686,51.273-32.44,69.762-10.465c21.613-27.024,66.6-4.876,58.531,28.62
				C492.894,544.931,510.35,551.19,516.794,565.734z"/>
			<path style="fill:#269E57;" d="M516.794,565.734c9.548,19.777-9.166,43.414-30.419,39.111
				c31.165,24.911-7.761,70.231-37.05,43.635c-10.475,16.13-34.798,22.95-52.242,14.393c2.523,24.024-26.009,43.516-47.538,32.311
				c1.602,47.843-69.053,60.106-83.176,13.6c0,0,44.245,20.827,63.063-28.127c18.833-48.949,62.798-34.845,83.996-74.051
				c21.187-39.201,3.432-95.148-63.057-72.73c11.43-26.686,51.273-32.44,69.762-10.465c21.613-27.024,66.6-4.876,58.531,28.62
				C492.894,544.931,510.35,551.19,516.794,565.734z"/>
		</g>
		<g>
			<path style="fill:#F9B233;" d="M282.734,828.228c-166.688-73.747,134.614,31.765,257.897-204.966
				c0.718,0.456,5.653-57.488,27.759-53.835c5.68,1.708,6.235,5.808,4.351,11.461c-3.806,11.48-17.674,29.412-19.442,47.045
				C549.596,801.922,411.961,876.601,282.734,828.228z"/>
			<path style="fill:#F39200;" d="M247.017,811.527c-14.473-6.365-23.206-18.507,0.906-16.576
				C250.129,800.279,248.909,804.862,247.017,811.527z"/>
			<path style="fill:#F39200;" d="M282.734,828.228c208.065,22.977,270.565-200.294,270.565-200.294
				C549.596,801.922,411.961,876.601,282.734,828.228z"/>
			<path style="fill:#F9B233;" d="M375.957,906.39c-10.384,0.274-85.926-6.385-44.526-20.741
				c140.254-43.251,224.842-167.805,224.82-309.653c3.798-9.001,17.916-8.32,16.582,3.234c0.102,12.093-7.234,33.541-3.221,50.799
				C622.707,785.468,545.655,918.436,375.957,906.39z"/>
			<path style="fill:#F39200;" d="M375.957,906.39c228.645-14.716,195.035-271.931,195.035-271.931
				C621.539,789.717,543.382,917.816,375.957,906.39z"/>
			<path style="fill:#F39200;" d="M338.951,902.634c-15.753-1.354-30.969-11.03-7.523-16.982
				C335.236,889.983,338.592,895.715,338.951,902.634z"/>
			<path style="fill:#F39200;" d="M553.002,579.481c0,0,11.757,10.718,19.686,3.29c0,0,4.498-9.514-2.397-12.668
				C563.395,566.949,557.895,569.955,553.002,579.481z"/>
		</g>
		<g>
			<path style="fill:#2FAC66;" d="M723.88,859.138c46.024-14.661,41.188-41.061,29.63-91.156
				c-9.221-44.104-53.668-59.373-75.522-100.727c-22.34-42.281-34.273-65.793-57.789-61.757
				C510.055,624.398,576.66,930.578,723.88,859.138z"/>
			<path style="fill:#FCBE59;" d="M723.909,859.015c16.919-5.344,30.637-14.34,40.482-26.162l0.01-0.003
				c15.401-18.501,21.336-43.93,15.232-73.119c-9.222-44.104-53.67-59.373-75.523-100.727
				c-19.626-37.134-44.441-54.716-66.226-56.135C525.664,605.334,619.237,911.179,723.909,859.015z"/>
			<path style="fill:#843F2C;" d="M664.64,788.9c33.074,65.352,100.588,25.244,73.283-35.124
				C707.082,689.837,636.112,724.076,664.64,788.9z"/>
			<path style="fill:#8E4A35;" d="M676.781,765.549c13.724,29.752,45.056,43.89,66.344,25.254
				c9.827-38.119-38.648-92.244-71.545-62.28C669.52,739.932,671.083,753.052,676.781,765.549z"/>
			<path style="fill:#269E57;" d="M723.88,859.138l0.029-0.123c-114.341,48.613-175.748-175.094-144.201-223.748
				C536.409,710.78,587.588,918.156,723.88,859.138z"/>
			<path style="fill:#F9AE41;" d="M723.909,859.015c16.919-5.344,30.637-14.34,40.482-26.162
				c-92.334,51.107-119.882,5.203-151.65-104.372c-32.099-110.717,24.268-125.143,25.143-125.613
				C525.691,605.309,619.21,911.184,723.909,859.015z"/>
		</g>
	</g>
	<g id="_x34_">
		<path style="fill:#4867AA;" d="M1443.222,279.238l-0.619-35.156l-20.183,0.355c-1.699-6.243-4.221-12.144-7.441-17.582
			l14.168-14.676l-25.296-24.421l-13.635,14.124c-6.297-3.803-13.218-6.665-20.565-8.389l-0.365-20.76l-35.156,0.619l0.365,20.76
			c-6.764,1.84-13.125,4.648-18.932,8.262l-13.288-12.828l-24.421,25.296l13.288,12.828c-3.407,5.931-5.989,12.387-7.59,19.211
			l-20.183,0.355l0.619,35.155l20.183-0.355c1.981,7.282,5.085,14.098,9.107,20.258l-13.635,14.124l25.296,24.421l14.168-14.676
			c5.548,3.026,11.534,5.34,17.833,6.818l0.365,20.76l35.156-0.619l-0.365-20.76c6.764-1.84,13.125-4.648,18.932-8.262
			l15.487,14.951l24.421-25.296l-15.487-14.951c3.407-5.931,5.989-12.387,7.59-19.212L1443.222,279.238z M1355.958,295.251
			c-41.938,3.234-47.099-60.314-5.323-64.027C1392.571,227.99,1397.732,291.539,1355.958,295.251z"/>
		<path style="fill:#EB5648;" d="M1669.492,460.837v-37.284h-28.556c-1.044-5.829-2.548-11.498-4.511-16.951l24.703-14.262
			l-18.642-32.289l-24.735,14.281c-3.782-4.468-7.927-8.614-12.396-12.395l14.281-24.736l-32.289-18.642l-14.262,24.703
			c-5.454-1.962-11.122-3.467-16.951-4.511v-28.556h-37.284v28.556c-5.829,1.044-11.497,2.548-16.951,4.511l-14.263-24.703
			l-32.289,18.642l14.281,24.736c-4.467,3.781-8.613,7.927-12.395,12.395l-24.735-14.281l-18.642,32.289l24.703,14.262
			c-1.962,5.454-3.467,11.122-4.51,16.951h-28.556v37.284h28.556c1.044,5.829,2.548,11.497,4.51,16.951l-24.703,14.262
			l18.642,32.289l24.735-14.281c3.782,4.468,7.928,8.614,12.395,12.395l-14.281,24.735l32.289,18.642l14.263-24.703
			c5.453,1.963,11.122,3.467,16.951,4.511v28.556h37.284v-28.556c5.829-1.044,11.497-2.548,16.951-4.511l14.262,24.703
			l32.289-18.642l-14.281-24.735c4.468-3.782,8.614-7.927,12.396-12.395l24.735,14.281l18.642-32.289l-24.703-14.262
			c1.962-5.454,3.467-11.122,4.511-16.951H1669.492z M1537.492,494.758c-69.094-1.18-69.083-103.956,0.002-105.126
			C1606.585,390.813,1606.575,493.588,1537.492,494.758z"/>
		<path style="fill:#8A9EDD;" d="M1315.969,465.659v-17.45h-15.422c-1.041-12.318-4.263-24.014-9.28-34.701l13.34-7.702
			l-8.725-15.112l-13.353,7.709c-6.906-9.885-15.513-18.491-25.397-25.397l7.709-13.352l-15.112-8.725l-7.702,13.34
			c-10.687-5.017-22.383-8.239-34.701-9.28v-15.422h-17.45v15.422c-12.318,1.04-24.014,4.263-34.701,9.28l-7.702-13.34
			l-15.112,8.725l7.709,13.352c-9.885,6.906-18.491,15.513-25.398,25.397l-13.352-7.709l-8.725,15.112l13.34,7.702
			c-5.017,10.687-8.239,22.383-9.28,34.701h-15.422v17.45h15.422c1.041,12.318,4.263,24.014,9.28,34.701l-13.34,7.702l8.725,15.112
			l13.352-7.709c6.906,9.885,15.513,18.491,25.398,25.397l-7.709,13.353l15.112,8.725l7.702-13.34
			c10.687,5.017,22.382,8.239,34.701,9.28v15.422h17.45v-15.422c12.318-1.04,24.013-4.263,34.701-9.28l7.702,13.34l15.112-8.725
			l-7.709-13.353c9.884-6.906,18.491-15.513,25.397-25.397l13.353,7.709l8.725-15.112l-13.34-7.702
			c5.017-10.687,8.239-22.383,9.28-34.701H1315.969z M1198.602,523.452c-87.438-1.493-87.424-131.555,0.003-133.035
			C1286.039,391.91,1286.026,521.971,1198.602,523.452z"/>
		<g>
			<path style="fill:#FCB4B4;" d="M1620.403,555.826c2.186-4.889,3.735-10.161,4.527-15.728
				c4.563-32.096-17.756-61.814-49.853-66.378c-12.421-1.766-24.484,0.497-34.872,5.791c1.62-4.005,2.52-8.379,2.52-12.965
				c0-19.115-15.495-34.61-34.61-34.61c-10.92,0-20.652,5.062-26.995,12.962c-10.442-21.252-32.3-35.881-57.578-35.881
				c-26.183,0-48.697,15.696-58.656,38.191c-2.816-15.553-16.417-27.353-32.782-27.353c-17.211,0-31.372,13.048-33.138,29.792
				c-8.006-5.86-17.874-9.327-28.555-9.327c-21.299,0-39.372,13.762-45.846,32.875c-0.849-0.036-1.703-0.059-2.561-0.059
				c-32.419,0-58.7,26.281-58.7,58.7c0,17.452,7.619,33.123,19.709,43.875c-11.614,5.208-19.709,16.863-19.709,30.416
				c0,18.406,14.921,33.326,33.327,33.326c8.478,0,16.212-3.171,22.094-8.385c10.704,14.318,27.792,23.587,47.044,23.587
				c19.124,0,36.11-9.147,46.827-23.303c10.717,14.156,27.703,23.303,46.827,23.303c19.461,0,36.707-9.473,47.387-24.057
				c10.68,14.584,27.926,24.057,47.387,24.057c15.534,0,29.656-6.037,40.156-15.889c9.493,6.599,21.024,10.47,33.461,10.47
				c15.898,0,30.317-6.323,40.887-16.588c8.88,10.955,22.438,17.963,37.638,17.963c26.749,0,48.433-21.684,48.433-48.433
				C1654.773,580.32,1640.292,561.852,1620.403,555.826z"/>
			<path style="fill:#F49F9F;" d="M1236.22,515.066c2.83,3.197,6.43,6.462,10.918,9.244c0.093,0.064,0.187,0.123,0.286,0.179
				c6.83,4.167,15.698,7.203,27.041,7.203c4.685,0,9.795-0.518,15.354-1.689c1.916-0.404,3.143-2.284,2.739-4.2
				c-0.403-1.917-2.28-3.145-4.201-2.74c-15.629,3.291-27.203,0.951-35.712-3.706c0.091-6.403,2.654-27.92,32.734-30.775
				c1.95-0.185,3.38-1.915,3.195-3.865c-0.186-1.949-1.904-3.38-3.865-3.195c-30.301,2.876-37.224,22.548-38.731,33.267
				c-11.719-9.858-15.198-23.74-15.444-24.781c-0.444-1.906-2.347-3.092-4.255-2.651c-1.908,0.442-3.096,2.347-2.654,4.255
				C1223.745,492.122,1226.636,504.238,1236.22,515.066z"/>
			<path style="fill:#F49F9F;" d="M1316.795,482.145c-0.519,3.726-1.013,10.808,0.833,19.189
				c2.469,11.204,9.748,26.962,30.403,38.401c0.544,0.301,1.134,0.444,1.714,0.444c1.248,0,2.458-0.66,3.105-1.828
				c0.949-1.713,0.329-3.871-1.384-4.82c-28-15.508-28.812-39.17-27.891-48.533c3.932,1.236,8.433,1.994,13.607,1.994
				c4.023,0,8.446-0.451,13.297-1.473c1.916-0.404,3.143-2.284,2.739-4.2c-0.403-1.916-2.278-3.146-4.201-2.74
				c-34.578,7.282-42.714-18.007-43.052-19.114c-0.56-1.871-2.529-2.937-4.402-2.384c-1.878,0.555-2.951,2.527-2.396,4.405
				C1299.229,461.694,1303.307,474.805,1316.795,482.145z"/>
			<path style="fill:#F49F9F;" d="M1557.023,546.113c0.33,0.096,0.664,0.142,0.992,0.142c1.536,0,2.953-1.007,3.403-2.556
				c0.547-1.88-0.534-3.848-2.415-4.395c-12.454-3.623-19.072-10.982-22.459-18.857c-0.076-0.267-0.18-0.522-0.314-0.761
				c-5.227-12.985-1.962-27.084-1.731-28.034c0.464-1.9-0.698-3.818-2.598-4.285c-1.905-0.471-3.822,0.694-4.29,2.597
				c-0.11,0.45-2.683,11.154-0.467,23.384c0.248,1.368,0.566,2.787,0.962,4.232c-17.183-0.125-28.51,8.087-35.171,15.392
				c-7.85,8.609-10.946,17.664-11.074,18.045c-0.622,1.854,0.376,3.858,2.229,4.484c0.375,0.127,0.757,0.187,1.133,0.187
				c1.478,0,2.858-0.932,3.36-2.409c0.432-1.272,10.752-30.518,42.174-28.507C1534.865,533.437,1542.611,541.921,1557.023,546.113z"
				/>
			<path style="fill:#F49F9F;" d="M1474.606,581.026c-0.064-0.046-0.124-0.098-0.191-0.14c-3.798-2.822-7.689-4.87-11.286-6.346
				c-12.628-5.185-24.129-4.605-24.613-4.578c-1.953,0.11-3.445,1.78-3.339,3.734c0.107,1.953,1.785,3.451,3.731,3.348
				c0.948-0.051,13.999-0.585,26.464,6.352c-18.092,9.663-23.954,23.102-25.593,33.107c-1.947,11.887,1.518,21.403,1.666,21.802
				c0.531,1.427,1.882,2.307,3.32,2.307c0.408,0,0.823-0.071,1.229-0.22c1.834-0.676,2.773-2.713,2.103-4.549
				c-0.477-1.305-11.075-31.626,23.96-47.857c6.913,5.802,12.836,14.649,15.236,28.136c0.305,1.718,1.801,2.925,3.487,2.925
				c0.206,0,0.415-0.018,0.625-0.055c1.928-0.343,3.213-2.185,2.87-4.112C1491.26,597.929,1483.193,587.472,1474.606,581.026z"/>
			<path style="fill:#F49F9F;" d="M1621.418,607.236c-39.154-0.544-49.188-23.546-51.281-30.242
				c7.344-6.907,17.903-11.357,31.501-13.25c1.94-0.27,3.294-2.062,3.023-4.001c-0.27-1.94-2.071-3.293-4.001-3.023
				c-16.062,2.237-28.449,7.834-36.936,16.649c-0.03,0.029-0.059,0.058-0.088,0.088c-1.309,1.367-2.531,2.805-3.652,4.326
				c-11.335,15.382-8.634,32.837-8.513,33.572c0.284,1.739,1.788,2.973,3.495,2.973c0.19,0,0.383-0.015,0.578-0.047
				c1.932-0.317,3.242-2.14,2.925-4.073c-0.023-0.146-2.224-14.377,6.445-27.114c1.531,3.46,4.031,7.909,8.023,12.367
				c7.526,8.404,22.03,18.499,48.383,18.866c0.017,0,0.033,0,0.05,0c1.935,0,3.517-1.555,3.545-3.497
				C1624.942,608.873,1623.376,607.264,1621.418,607.236z"/>
			<path style="fill:#F49F9F;" d="M1408.529,439.726c18.056,2.618,32.298,13.12,42.331,31.214
				c5.953,10.736,8.604,21.137,9.498,25.284c-8.705,7.294-20.432,10.57-34.914,9.718c-1.966-0.116-3.633,1.377-3.748,3.332
				c-0.114,1.955,1.377,3.633,3.332,3.748c1.648,0.097,3.265,0.145,4.852,0.145c15,0,27.298-4.321,36.607-12.874
				c0.046-0.042,0.087-0.086,0.133-0.128c0.023-0.021,0.044-0.043,0.066-0.064c16.547-15.386,17.337-38.548,17.362-39.53
				c0.051-1.955-1.492-3.58-3.448-3.633c-1.92-0.04-3.585,1.49-3.642,3.445c-0.005,0.188-0.62,16.747-10.771,29.784
				c-1.498-5.547-4.257-13.834-9.017-22.468c-11.008-19.971-27.476-32.07-47.624-34.992c-1.94-0.281-3.737,1.062-4.019,3.001
				C1405.248,437.646,1406.592,439.445,1408.529,439.726z"/>
			<path style="fill:#F49F9F;" d="M1310.659,561.328c0.605-1.863-0.414-3.863-2.277-4.469c-29.254-9.508-49.203-1.687-60.784,6.549
				c-7.975,5.671-13.115,12.231-15.866,16.386c-12.962-11.289-29.701-9.756-29.958-9.731c-1.944,0.204-3.351,1.942-3.153,3.886
				s1.928,3.363,3.883,3.168c1.312-0.128,32.24-2.765,36.558,34.076c0.211,1.805,1.743,3.134,3.517,3.134
				c0.137,0,0.276-0.008,0.417-0.025c1.946-0.228,3.337-1.99,3.109-3.935c-1.318-11.24-4.844-19.364-9.364-25.237
				c2.001-3.279,6.812-10.144,14.967-15.944c14.917-10.606,33.247-12.486,54.483-5.583
				C1308.053,564.211,1310.053,563.191,1310.659,561.328z"/>
			<path style="fill:#F49F9F;" d="M1359.291,586.953c-3.989-3.753-8.058-6.474-11.456-8.378c6.709-1.732,14.593-2.075,23.762-0.052
				c1.908,0.421,3.804-0.787,4.226-2.698c0.422-1.913-0.786-3.805-2.699-4.227c-14.877-3.281-26.775-0.933-35.882,3.355
				c-0.164,0.066-0.323,0.14-0.476,0.229c-5.099,2.465-9.309,5.528-12.652,8.529c-10.037,9.008-14.505,19.169-14.69,19.597
				c-0.777,1.795,0.047,3.877,1.841,4.657c0.46,0.2,0.94,0.294,1.411,0.294c1.368,0,2.672-0.796,3.254-2.129
				c0.423-0.967,7.232-16.055,22.782-24.071c6.111,2.409,33.203,15.193,30.116,51.337c-0.167,1.951,1.279,3.668,3.231,3.835
				c0.103,0.009,0.205,0.013,0.306,0.013c1.822,0,3.371-1.396,3.529-3.244C1377.948,609.956,1367.999,595.144,1359.291,586.953z"/>
			<path style="fill:#F49F9F;" d="M1414.016,488.49c1.896-0.477,3.049-2.401,2.575-4.299c-0.475-1.9-2.4-3.057-4.3-2.58
				c-0.458,0.114-11.333,2.898-21.442,11.049c-9.507,7.667-20.051,21.619-16.293,44.546c0.284,1.738,1.788,2.973,3.495,2.973
				c0.19,0,0.384-0.015,0.578-0.047c1.933-0.317,3.243-2.14,2.925-4.073C1375.434,498.715,1412.438,488.89,1414.016,488.49z"/>
			<path style="fill:#F49F9F;" d="M1448.314,542.566c-0.078-1.957-1.718-3.473-3.686-3.401c-0.429,0.017-10.648,0.501-21.422,7.301
				c-9.89,6.242-22.154,19.18-24.42,45.37c-0.168,1.951,1.276,3.67,3.228,3.839c0.104,0.009,0.207,0.013,0.309,0.013
				c1.82,0,3.369-1.393,3.529-3.24c3.812-44.057,37.633-46.13,39.071-46.196C1446.876,546.167,1448.392,544.519,1448.314,542.566z"
				/>
		</g>
	</g>
	<g id="_x33_">
		<path style="fill:#EB5648;" d="M2275.234,654.602c-1.17,34.355-29.593,63.557-53.829,86.157
			c-41.306,41.558-101.156,101.633-142.573,143.305c-41.575-41.345-101.854-101.286-143.34-142.539
			c-24.36-22.429-52.907-51.618-54.268-85.933c-8.111-57.176,43.303-113.716,100.234-111.749
			c38.935-2.282,71.406,26.427,96.607,54.342c0.103-0.199,24.062-24.068,24.943-25.079
			C2167.66,505.482,2286.555,562.225,2275.234,654.602z"/>
		<path style="fill:#CE3932;" d="M2275.234,654.602c-1.17,34.355-29.593,63.557-53.829,86.157
			c-41.306,41.558-101.156,101.633-142.573,143.305l-0.766-285.878c0.103-0.199,24.062-24.068,24.943-25.079
			C2167.66,505.482,2286.555,562.225,2275.234,654.602z"/>
		<path style="fill:#FCB4B4;" d="M2088.896,812.644c-3.414,0-6.46-2.149-7.604-5.369l-61.1-172.05l-41.536,82.157
			c-1.373,2.716-4.158,4.428-7.201,4.428H1843.46c-4.456,0-8.069-3.612-8.069-8.069c0-4.457,3.613-8.069,8.069-8.069h123.034
			l47.797-94.541c1.457-2.881,4.498-4.609,7.713-4.412c3.222,0.205,6.012,2.31,7.092,5.353l59.729,168.19l47.4-136.007
			c1.098-3.15,4.02-5.299,7.354-5.409c3.32-0.112,6.391,1.842,7.693,4.913l26.271,61.914h115.028c4.456,0,8.069,3.612,8.069,8.069
			c0,4.457-3.613,8.069-8.069,8.069h-120.37c-3.238,0-6.163-1.936-7.428-4.917l-20.19-47.584l-48.067,137.921
			c-1.127,3.233-4.171,5.403-7.596,5.413C2088.912,812.644,2088.904,812.644,2088.896,812.644z"/>
	</g>
	<g id="_x32_">
		<g>
			<path style="fill:#CE4ABF;" d="M432.179,1526.281c0,37.097-30.059,67.156-67.156,67.156c-0.984,0-1.968-0.021-2.931-0.064
				c-35.728-1.54-64.204-30.979-64.204-67.092c0-37.076,30.059-67.135,67.135-67.135c17.907,0,34.188,6.996,46.233,18.42
				C424.135,1489.826,432.179,1507.112,432.179,1526.281z"/>
			<path style="fill:#A523A2;" d="M432.179,1526.281c0,37.097-30.059,67.156-67.156,67.156c-0.984,0-1.968-0.021-2.931-0.064
				c-12.879-12.237-20.924-29.545-20.924-48.715c0-37.076,30.059-67.156,67.156-67.156c0.984,0,1.968,0.022,2.931,0.064
				C424.135,1489.826,432.179,1507.112,432.179,1526.281z"/>
			<path style="fill:#CE4ABF;" d="M634.338,1534.125c-11.724-10.013-26.957-16.046-43.558-16.046
				c-23.055,0-43.385,11.614-55.478,29.302l-126.7-33.653c-12.402-3.18-25.033,4.297-28.212,16.699
				c-3.179,12.401,4.297,25.032,16.698,28.211l126.918,33.712c3.519,33.303,31.37,59.339,65.447,59.998
				c0.449,0.021,0.877,0.021,1.326,0.021c37.076,0,67.135-30.058,67.135-67.156C657.914,1564.761,648.758,1546.447,634.338,1534.125
				z"/>
			<path style="fill:#A523A2;" d="M657.914,1585.213c0,37.098-30.059,67.156-67.135,67.156c-0.449,0-0.877,0-1.326-0.021
				c-14.441-12.323-23.598-30.636-23.598-51.111c0-37.076,30.08-67.134,67.156-67.134c0.449,0,0.877,0,1.326,0.021
				C648.758,1546.447,657.914,1564.761,657.914,1585.213z"/>
		</g>
		<g>
			<path style="fill:#CE4ABF;" d="M520.133,1670.132c0,37.097-30.059,67.156-67.156,67.156c-0.984,0-1.968-0.021-2.931-0.064
				c-35.728-1.54-64.204-30.979-64.204-67.092c0-37.076,30.059-67.135,67.134-67.135c17.907,0,34.188,6.996,46.233,18.421
				C512.089,1633.676,520.133,1650.962,520.133,1670.132z"/>
			<path style="fill:#A523A2;" d="M520.133,1670.132c0,37.097-30.059,67.156-67.156,67.156c-0.984,0-1.968-0.021-2.931-0.064
				c-12.879-12.237-20.924-29.545-20.924-48.715c0-37.076,30.059-67.156,67.156-67.156c0.984,0,1.969,0.022,2.931,0.064
				C512.089,1633.676,520.133,1650.962,520.133,1670.132z"/>
			<path style="fill:#CE4ABF;" d="M722.292,1677.975c-11.724-10.013-26.957-16.046-43.558-16.046
				c-23.055,0-43.385,11.614-55.478,29.302l-126.7-33.654c-12.402-3.18-25.033,4.297-28.212,16.699
				c-3.179,12.401,4.297,25.032,16.698,28.211L611.96,1736.2c3.519,33.303,31.37,59.339,65.447,59.998
				c0.449,0.021,0.877,0.021,1.326,0.021c37.076,0,67.135-30.058,67.135-67.156C745.868,1708.611,736.712,1690.298,722.292,1677.975
				z"/>
			<path style="fill:#A523A2;" d="M745.868,1729.064c0,37.098-30.059,67.156-67.135,67.156c-0.449,0-0.877,0-1.326-0.021
				c-14.441-12.323-23.598-30.636-23.598-51.11c0-37.076,30.08-67.135,67.156-67.135c0.449,0,0.877,0,1.326,0.021
				C736.712,1690.298,745.868,1708.611,745.868,1729.064z"/>
		</g>
	</g>
	<g id="_x31_">
		<g>
			<path style="fill:#3A72AA;" d="M2109.487,1377.588v302.59c0,15.194,55.343,27.511,123.612,27.511s123.613-12.317,123.613-27.511
				v-302.59H2109.487z"/>
			<ellipse style="fill:#23659B;" cx="2233.1" cy="1377.588" rx="123.612" ry="27.511"/>
			<path style="fill:#3A72AA;" d="M2138.877,1298.128v68.279c0,11.582,42.185,20.97,94.222,20.97
				c52.038,0,94.222-9.389,94.222-20.97v-68.279H2138.877z"/>
			<ellipse style="fill:#23659B;" cx="2233.1" cy="1297.691" rx="94.222" ry="20.97"/>
			
				<ellipse transform="matrix(0.7071 -0.7071 0.7071 0.7071 -434.362 2029.879)" style="fill:#FCB4B4;" cx="2233.1" cy="1539.261" rx="88.909" ry="88.909"/>
			<path style="fill:#F49F9F;" d="M2291.186,1542.951h-116.172c-2.038,0-3.69-1.652-3.69-3.69s1.652-3.69,3.69-3.69h116.172
				c2.038,0,3.69,1.652,3.69,3.69S2293.224,1542.951,2291.186,1542.951z"/>
			<path style="fill:#F49F9F;" d="M2291.186,1514.466h-116.172c-2.038,0-3.69-1.652-3.69-3.69c0-2.038,1.652-3.69,3.69-3.69h116.172
				c2.038,0,3.69,1.652,3.69,3.69C2294.876,1512.814,2293.224,1514.466,2291.186,1514.466z"/>
			<path style="fill:#F49F9F;" d="M2291.186,1571.436h-116.172c-2.038,0-3.69-1.652-3.69-3.69s1.652-3.69,3.69-3.69h116.172
				c2.038,0,3.69,1.652,3.69,3.69S2293.224,1571.436,2291.186,1571.436z"/>
		</g>
		<g>
			<path style="fill:#F39200;" d="M2409.304,1676.46v26.334c0,21.25-36.693,38.478-81.958,38.478
				c-22.83,0-43.48-4.383-58.342-11.454c-14.603-6.948-23.617-16.491-23.617-27.024v-26.334H2409.304z"/>
			<path style="fill:#F9B233;" d="M2409.305,1676.459c-0.768,46.045-154.07,55.818-163.594,3.435
				c-0.35-1.922-0.449-3.783-0.313-5.581c2.273-30.494,71.438-43.124,119.268-32.157
				C2388.332,1647.583,2406.774,1658.785,2409.305,1676.459z"/>
			<path style="fill:#F39200;" d="M2364.902,1642.251l-71.908,71.976c-1.865-0.372-3.276-1.455-5.068-1.89l70.405-71.538
				C2360.196,1641.173,2363.112,1641.818,2364.902,1642.251z"/>
		</g>
		<g>
			<path style="fill:#EB5648;" d="M2093.679,1709.807c0.003-0.009,6.7-57.682,6.757-57.656c0,0,60.93,7.112,60.93,7.112
				c25.266,2.097,35.507,36.748,15.184,51.681c-5.827,4.61-13.414,6.997-21.378,6.068
				C2155.167,1717.009,2093.65,1709.863,2093.679,1709.807z"/>
			<path style="fill:#FFFFFF;" d="M2006.729,1670.223c1.97-15.819,16.335-27.104,32.184-25.254l61.47,7.175
				c0.069,0.014-6.697,57.68-6.733,57.686C2067.663,1703.528,2002.421,1713.252,2006.729,1670.223z"/>
		</g>
	</g>
</g>
</svg>
